<svg width="390" height="232" viewBox="0 0 390 232" fill="none" xmlns="http://www.w3.org/2000/svg">
<path d="M0 0H390V187C390 211.853 369.853 232 345 232H45C20.1472 232 0 211.853 0 187V0Z" fill="url(#paint0_linear_366_3954)"/>
<mask id="mask0_366_3954" style="mask-type:alpha" maskUnits="userSpaceOnUse" x="0" y="78" width="390" height="154">
<path d="M0 78H390V187C390 211.853 369.853 232 345 232H45C20.1472 232 0 211.853 0 187V78Z" fill="url(#paint1_linear_366_3954)"/>
</mask>
<g mask="url(#mask0_366_3954)">
<path d="M-7 246.31L-0.338844 98.6063C56.5372 59.4022 72.4215 87.7913 135.959 131.577C160.201 148.283 180.537 109.098 210.256 129.699C239.975 150.301 255.025 141.609 277.893 123.308C342.967 71.2309 338.868 138.824 398.818 100.296H427V248L-7 246.31Z" fill="url(#paint2_linear_366_3954)"/>
</g>
<ellipse cx="363.497" cy="120.988" rx="4.2817" ry="7.17847" transform="rotate(-40.8619 363.497 120.988)" fill="#78B171"/>
<ellipse cx="355.241" cy="142.969" rx="6.10649" ry="8.99904" transform="rotate(-36.1723 355.241 142.969)" fill="#78B171"/>
<ellipse cx="379.202" cy="112.605" rx="6.10649" ry="9.9123" transform="rotate(36.2305 379.202 112.605)" fill="#78B171"/>
<ellipse cx="376.591" cy="137.506" rx="6.10649" ry="8.99904" transform="rotate(46.9298 376.591 137.506)" fill="#78B171"/>
<path d="M364.883 169.323C363.482 150.258 364.462 139.521 374.203 120.15" stroke="#78B171" stroke-width="0.642789"/>
<path d="M364.659 150.361C366.197 146.684 367.72 145.387 370.346 143.612M368.439 133.327C369.071 130.012 369.086 128.308 367.775 125.935M360.062 149.076C362.259 150.55 363.357 152.044 364.384 155.921" stroke="#78B171" stroke-width="0.642789"/>
<mask id="mask1_366_3954" style="mask-type:alpha" maskUnits="userSpaceOnUse" x="0" y="148" width="390" height="84">
<path d="M0 148H390V187C390 211.853 369.853 232 345 232H45C20.1472 232 0 211.853 0 187V148Z" fill="url(#paint3_linear_366_3954)"/>
</mask>
<g mask="url(#mask1_366_3954)">
<path d="M390.5 149C308.026 156.5 295.974 221 213.5 233L398 234L400 149.177L390.5 149Z" fill="#DCEED8"/>
</g>
<defs>
<linearGradient id="paint0_linear_366_3954" x1="195" y1="-120" x2="195" y2="350" gradientUnits="userSpaceOnUse">
<stop stop-color="white"/>
<stop offset="0.36793" stop-color="white" stop-opacity="0"/>
<stop offset="1" stop-color="#2E9B45"/>
</linearGradient>
<linearGradient id="paint1_linear_366_3954" x1="195" y1="78" x2="195" y2="442.422" gradientUnits="userSpaceOnUse">
<stop stop-color="white"/>
<stop offset="0.259615" stop-color="white"/>
<stop offset="1" stop-color="#2E9B45"/>
</linearGradient>
<linearGradient id="paint2_linear_366_3954" x1="213.074" y1="80" x2="211.289" y2="239.033" gradientUnits="userSpaceOnUse">
<stop stop-color="#E1F1DF"/>
<stop offset="0.466346" stop-color="#E2F1E5"/>
<stop offset="1" stop-color="#E2F1E5"/>
</linearGradient>
<linearGradient id="paint3_linear_366_3954" x1="195" y1="148" x2="195" y2="346.776" gradientUnits="userSpaceOnUse">
<stop stop-color="white"/>
<stop offset="0.259615" stop-color="white"/>
<stop offset="1" stop-color="#2E9B45"/>
</linearGradient>
</defs>
</svg>
